<?xml version="1.0" encoding="UTF-8"?>
<svg version="1.1" xmlns="http://www.w3.org/2000/svg" width="477" height="523">
<path d="M0 0 C6.74018215 -0.10233933 13.48016024 -0.17185505 20.22094727 -0.21972656 C22.50878385 -0.23970626 24.79657026 -0.26689951 27.08422852 -0.30175781 C56.92163791 -0.74466195 56.92163791 -0.74466195 70 9 C70 9.66 70 10.32 70 11 C70.58007812 11.23074219 71.16015625 11.46148437 71.7578125 11.69921875 C83.65662241 18.60218687 88.98256749 38.16075147 92.37792969 50.56835938 C93.60691986 55.37241831 94.66193007 60.21148196 95.6875 65.0625 C95.99119507 66.49686401 95.99119507 66.49686401 96.30102539 67.96020508 C99.08672373 81.69361662 100.41629947 95.08396856 100.375 109.0625 C100.3737915 109.82623932 100.37258301 110.58997864 100.37133789 111.37686157 C100.24023807 142.06501025 92.57754767 179.24155081 70.22265625 201.79296875 C59.16869306 211.9445676 46.21756179 212.29722453 31.92358398 212.22705078 C30.30651354 212.22648587 28.68944258 212.22680479 27.07237244 212.22793579 C22.70523055 212.22850717 18.33819961 212.21678775 13.9710834 212.20278788 C9.3987019 212.19024461 4.82631756 212.18910719 0.25392151 212.18673706 C-8.39438238 212.18053283 -17.04263541 212.16413637 -25.69091696 212.14403808 C-35.54099157 212.12164611 -45.39106867 212.11067737 -55.24116242 212.10064721 C-75.49413661 212.07976918 -95.74706509 212.04461383 -116 212 C-116 215.96 -116 219.92 -116 224 C-81.68 224 -47.36 224 -12 224 C-12 278.94164456 -12 278.94164456 -17.9375 288.3125 C-18.42089844 289.09238281 -18.90429688 289.87226563 -19.40234375 290.67578125 C-34.18582351 312.18231048 -62.01401123 318.82504062 -86.21533203 323.49511719 C-121.46665039 329.88646616 -165.10145297 326.53866313 -195.76953125 306.5859375 C-208.33942673 297.64832355 -218.15609835 287.64960543 -221 272 C-221.28132623 268.27088475 -221.28375288 264.55584911 -221.2746582 260.81738281 C-221.27976913 259.72358307 -221.28488007 258.62978333 -221.29014587 257.50283813 C-221.30399491 253.90287739 -221.30308829 250.30310915 -221.30078125 246.703125 C-221.30467134 244.18739756 -221.30900665 241.67167077 -221.31376648 239.15594482 C-221.32121907 233.88714984 -221.32108413 228.6184042 -221.31567383 223.34960938 C-221.30964384 217.2874971 -221.32192673 211.22561749 -221.3432439 205.16354489 C-221.3630904 199.30093189 -221.36602084 193.43840893 -221.36250877 187.57576752 C-221.36301991 185.09603073 -221.36821829 182.61629006 -221.37832069 180.13657379 C-221.39075309 176.6576025 -221.38385191 173.1791591 -221.37231445 169.70019531 C-221.37995819 168.68992279 -221.38760193 167.67965027 -221.39547729 166.63876343 C-221.28557903 151.53276128 -216.29992299 137.78529216 -205.5625 127 C-193.30823484 115.51266844 -180.40398467 111.84978861 -163.83251953 111.8581543 C-162.7161763 111.85467987 -161.59983307 111.85120544 -160.44966125 111.84762573 C-158.02869284 111.84028434 -155.60771776 111.83493036 -153.18674088 111.83133507 C-149.3424466 111.82414323 -145.49827802 111.80845387 -141.65402222 111.78999329 C-130.72444528 111.73766835 -119.79493453 111.6891827 -108.86523438 111.67407227 C-102.17323184 111.66472589 -95.48159045 111.63445801 -88.78969955 111.59275246 C-86.25189491 111.58051776 -83.71404546 111.57530727 -81.17621231 111.57755089 C-57.29696838 111.59345977 -36.36795484 109.06954946 -18.53417969 91.63183594 C-8.12451572 80.5595581 -1.03631686 65.58405243 -0.79467773 50.29174805 C-0.77473251 49.17096359 -0.75478729 48.05017914 -0.73423767 46.89543152 C-0.71752518 45.6963063 -0.70081268 44.49718109 -0.68359375 43.26171875 C-0.6524221 41.40786308 -0.6524221 41.40786308 -0.62062073 39.51655579 C-0.56640069 36.24347874 -0.51612422 32.9703726 -0.46777344 29.69720459 C-0.4173843 26.3521174 -0.36171184 23.00712276 -0.30664062 19.66210938 C-0.19964057 13.10814229 -0.09784108 6.55410987 0 0 Z M-73.375 259.4375 C-76.84084382 264.9028691 -77.35456397 269.28616738 -76.5390625 275.6015625 C-75.27183077 281.23982541 -71.70030873 284.90206925 -67 288 C-61.84860844 290.83552474 -57.86067869 291.47973735 -52.171875 289.8515625 C-47.00797658 287.82686852 -43.36262888 285.15887692 -40.5625 280.3125 C-38.19545952 274.87138098 -38.06232308 269.50231643 -39.58984375 263.796875 C-41.99986372 257.9772876 -46.24305652 254.41335283 -52 252 C-61.0379854 250.21551141 -67.13670424 253.03503856 -73.375 259.4375 Z " fill="#FEDE57" transform="translate(332,111)"/>
<path d="M0 0 C1.07063187 -0.00696899 2.14126373 -0.01393799 3.24433899 -0.02111816 C6.68376626 -0.03843466 10.12303095 -0.04483802 13.5625 -0.046875 C15.3164357 -0.04838562 15.3164357 -0.04838562 17.10580444 -0.04992676 C33.73354029 -0.04021004 50.17370582 0.06016137 66.5625 3.203125 C67.30483887 3.34234375 68.04717773 3.4815625 68.81201172 3.625 C86.41530454 7.12540161 101.96218429 16.19890073 112.3203125 31.03125 C116.63931763 38.58271808 119.66525034 46.4137556 119.70967102 55.15869141 C119.72040398 56.61750481 119.72040398 56.61750481 119.73135376 58.10578918 C119.73404266 59.16142563 119.73673157 60.21706207 119.73950195 61.3046875 C119.74607315 62.42570358 119.75264435 63.54671967 119.75941467 64.70170593 C119.77911836 68.41051301 119.79080561 72.1192796 119.80078125 75.828125 C119.80485678 77.09812347 119.8089323 78.36812195 119.81313133 79.67660522 C119.83183452 85.70955857 119.84640058 91.74248756 119.8547433 97.77546215 C119.86449166 104.70818884 119.89075307 111.64059421 119.93124419 118.57320786 C119.96522986 124.60186181 119.9769037 130.6303618 119.98094749 136.65911865 C119.98579957 139.21061375 119.99737382 141.76210577 120.01598549 144.3135376 C120.16199537 165.66149762 118.3488087 181.70592676 103.08984375 197.87890625 C88.03367305 211.72499831 68.93694187 211.78015797 49.69194031 211.6889801 C45.88865964 211.67150705 42.08612503 211.67933982 38.28283691 211.6932373 C29.52624072 211.7205424 20.76984756 211.71159031 12.013237 211.70053864 C3.32962884 211.69002505 -5.35359865 211.69545767 -14.03718567 211.72718811 C-17.75722627 211.73421164 -21.47666249 211.71769761 -25.19665527 211.70007324 C-48.08649267 211.70141114 -67.03748008 215.60829551 -83.7421875 232.2109375 C-96.67799529 245.96951751 -100.66819661 262.93269906 -100.8515625 281.2109375 C-100.87092865 282.4175705 -100.8902948 283.62420349 -100.9102478 284.86740112 C-100.96960079 288.68757252 -101.01625112 292.50777477 -101.0625 296.328125 C-101.10072054 298.93230416 -101.13977459 301.53647123 -101.1796875 304.140625 C-101.2752656 310.49468363 -101.36044027 316.84881624 -101.4375 323.203125 C-107.58979722 323.30303738 -113.74160782 323.37508042 -119.89453125 323.42285156 C-121.98152915 323.44279513 -124.06847244 323.46996003 -126.15527344 323.50488281 C-144.19442731 323.79890545 -159.92465214 322.86590705 -173.87109375 309.94921875 C-195.97274577 286.72943931 -200.88487225 248.56182274 -200.8125 217.828125 C-200.81228851 216.9957431 -200.81207703 216.16336121 -200.81185913 215.30575562 C-200.7764242 201.27772297 -199.64331655 187.89742495 -196.4375 174.203125 C-196.14069336 172.88779785 -196.14069336 172.88779785 -195.83789062 171.54589844 C-191.35287007 151.987435 -183.52526737 132.94901586 -166.125 121.390625 C-152.0711256 113.06821893 -139.39517651 110.89079247 -123.25732422 110.97607422 C-121.74847928 110.97663939 -120.2396338 110.9763197 -118.73078918 110.97518921 C-114.66328021 110.97461883 -110.59589083 110.98632172 -106.52840948 111.00033712 C-102.26700298 111.01289739 -98.0055933 111.01401914 -93.74417114 111.01638794 C-85.68734537 111.02258721 -77.63057431 111.03897689 -69.57377255 111.05908692 C-60.39597206 111.08149441 -51.21816887 111.09245151 -42.04034781 111.10247779 C-23.17270007 111.12334459 -4.30510646 111.15889629 14.5625 111.203125 C14.5625 107.243125 14.5625 103.283125 14.5625 99.203125 C-19.7575 99.203125 -54.0775 99.203125 -89.4375 99.203125 C-89.4375 35.86166159 -89.4375 35.86166159 -81.4375 24.203125 C-80.67953125 23.09324219 -80.67953125 23.09324219 -79.90625 21.9609375 C-79.4215625 21.38085938 -78.936875 20.80078125 -78.4375 20.203125 C-77.7775 20.203125 -77.1175 20.203125 -76.4375 20.203125 C-76.4375 19.543125 -76.4375 18.883125 -76.4375 18.203125 C-59.7662485 7.16367443 -41.04578607 3.48563954 -21.4375 1.203125 C-20.33072151 1.07213158 -20.33072151 1.07213158 -19.20158386 0.93849182 C-12.78990116 0.23464856 -6.44717232 0.02821279 0 0 Z M-60.23828125 42.421875 C-62.96747512 46.47566134 -63.04842356 51.46201402 -62.4375 56.203125 C-60.30079146 62.83302636 -56.52481396 66.81322861 -50.546875 70.30859375 C-46.59429295 71.98478132 -42.63503383 71.82078013 -38.4375 71.203125 C-32.36479087 68.69528266 -28.2987251 64.64639143 -25.1875 58.890625 C-23.34109896 52.27435462 -24.16608082 47.18192558 -27.4375 41.203125 C-31.06044823 37.00813231 -34.72841681 33.60784672 -40.33984375 32.76953125 C-49.83891322 32.75730594 -54.11498512 35.35035191 -60.23828125 42.421875 Z " fill="#3D79AA" transform="translate(200.4375,-0.203125)"/>
<path d="M0 0 C2.02851974 5.94849708 -1.14386489 11.79850971 -3.3125 17.375 C-5.39301315 20.61135378 -7.79877606 21.90940477 -11 24 C-12.78359417 26.50817931 -14.43417496 29.05550743 -16.015625 31.6953125 C-20.97091804 38.68917547 -29.34854934 40.9215501 -37 44 C-37.62313898 44.32753549 -38.24627796 44.65507097 -38.88829994 44.99253178 C-47.26530685 48.98910707 -56.41576111 49.43874928 -65.52978516 49.40063477 C-66.7182605 49.40761383 -67.90673584 49.4145929 -69.13122559 49.42178345 C-73.01724538 49.44160704 -76.90299691 49.4412594 -80.7890625 49.44140625 C-83.50241054 49.45134502 -86.21572311 49.46631426 -88.92904663 49.48143005 C-96.76633778 49.52216226 -104.603606 49.54097267 -112.440979 49.55760193 C-122.45332484 49.58005647 -132.46560647 49.61341828 -142.4778465 49.66480106 C-145.83905905 49.68145957 -149.20016446 49.69342649 -152.56142044 49.69503975 C-156.29574968 49.6977569 -160.0298712 49.71209113 -163.76416016 49.72875977 C-164.87890717 49.72620682 -165.99365417 49.72365387 -167.1421814 49.72102356 C-168.1541156 49.72785156 -169.1660498 49.73467957 -170.20864868 49.74171448 C-171.09088923 49.74334878 -171.97312977 49.74498308 -172.88210487 49.74666691 C-175.2166923 49.80461259 -175.2166923 49.80461259 -177 52 C-178.7325 52.0928125 -178.7325 52.0928125 -180.5 52.1875 C-190.07599197 53.17632526 -198.80233405 62.68573222 -205.25 69.3125 C-207.30838502 72.47359129 -208.58339707 75.67242145 -209.875 79.20703125 C-211 82 -211 82 -213.04193115 85.40063477 C-215.80015401 90.92302262 -215.53056261 96.3212665 -215.45410156 102.3828125 C-215.45468567 103.60317703 -215.45526978 104.82354156 -215.45587158 106.08088684 C-215.45357293 109.40508379 -215.43360422 112.72826985 -215.40557575 116.05228806 C-215.38045983 119.53425834 -215.37821212 123.01624412 -215.37347412 126.49829102 C-215.36107408 133.08198135 -215.32829323 139.66540393 -215.28807616 146.24897671 C-215.2432654 153.74837702 -215.22134812 161.24779056 -215.20129442 168.74729156 C-215.15955755 184.16501575 -215.08926398 199.58247326 -215 215 C-217.79726773 210.8040984 -218.12245884 207.11173536 -218.14044189 202.15159607 C-218.14615204 201.2028511 -218.15186218 200.25410614 -218.15774536 199.27661133 C-218.15942215 197.73287842 -218.15942215 197.73287842 -218.16113281 196.15795898 C-218.16609772 195.06459732 -218.17106262 193.97123566 -218.17617798 192.84474182 C-218.19077829 189.22851937 -218.19759921 185.61234083 -218.203125 181.99609375 C-218.20887958 179.4760793 -218.21463728 176.95606485 -218.22039795 174.43605042 C-218.22956101 169.82462878 -218.23586282 165.21322024 -218.2388947 160.6017918 C-218.24336465 153.84230308 -218.26086651 147.08301766 -218.2898953 140.3235907 C-218.31424654 134.44658119 -218.3218454 128.56963858 -218.32357025 122.69258308 C-218.32658509 120.20446735 -218.33457382 117.71635222 -218.34775543 115.22826958 C-218.36493845 111.73462716 -218.36290532 108.24147104 -218.35644531 104.74780273 C-218.3656601 103.73281708 -218.37487488 102.71783142 -218.3843689 101.67208862 C-218.2974238 86.55220998 -213.30931616 72.7947272 -202.5625 62 C-190.30823484 50.51266844 -177.40398467 46.84978861 -160.83251953 46.8581543 C-159.7161763 46.85467987 -158.59983307 46.85120544 -157.44966125 46.84762573 C-155.02869284 46.84028434 -152.60771776 46.83493036 -150.18674088 46.83133507 C-146.3424466 46.82414323 -142.49827802 46.80845387 -138.65402222 46.78999329 C-127.72444528 46.73766835 -116.79493453 46.6891827 -105.86523438 46.67407227 C-99.17323184 46.66472589 -92.48159045 46.63445801 -85.78969955 46.59275246 C-83.25189491 46.58051776 -80.71404546 46.57530727 -78.17621231 46.57755089 C-54.30803201 46.5934524 -33.37333477 44.07146031 -15.53857422 26.64941406 C-8.51979167 19.12499406 -3.08928325 9.79809985 0 0 Z " fill="#FAE585" transform="translate(329,176)"/>
<path d="M0 0 C6.74018215 -0.10233933 13.48016024 -0.17185505 20.22094727 -0.21972656 C22.50878385 -0.23970626 24.79657026 -0.26689951 27.08422852 -0.30175781 C56.92163791 -0.74466195 56.92163791 -0.74466195 70 9 C70 9.66 70 10.32 70 11 C70.639375 11.268125 71.27875 11.53625 71.9375 11.8125 C74 13 74 13 75 16 C73.02 15.34 71.04 14.68 69 14 C69 13.01 69 12.02 69 11 C68.34 10.7525 67.68 10.505 67 10.25 C63.87230549 8.94679395 60.94071133 7.41931664 57.96484375 5.8046875 C55.73693917 4.74733933 55.73693917 4.74733933 52 5 C52 4.01 52 3.02 52 2 C36.16 2.33 20.32 2.66 4 3 C3.71062814 17.76442562 3.71062814 17.76442562 3.43188477 32.52905273 C3.39377921 34.37224112 3.35531158 36.21542207 3.31640625 38.05859375 C3.29993042 39.02510864 3.28345459 39.99162354 3.26647949 40.98742676 C3.23620667 42.35768005 3.23620667 42.35768005 3.20532227 43.75561523 C3.18977798 44.55281479 3.1742337 45.35001434 3.15821838 46.17137146 C3 48 3 48 2 49 C2.00587411 50.75048611 2.05484934 52.50091024 2.125 54.25 C2.18281394 58.69589185 1.93573886 61.45264887 -1 65 C-1.78906677 62.63279968 -2.03709558 61.18456207 -1.54017639 58.7122345 C-0.96977193 55.84822438 -0.84079474 53.21029585 -0.79467773 50.29174805 C-0.77473251 49.17096359 -0.75478729 48.05017914 -0.73423767 46.89543152 C-0.70916893 45.0967437 -0.70916893 45.0967437 -0.68359375 43.26171875 C-0.66281265 42.02581497 -0.64203156 40.78991119 -0.62062073 39.51655579 C-0.56640069 36.24347874 -0.51612422 32.9703726 -0.46777344 29.69720459 C-0.4173843 26.3521174 -0.36171184 23.00712276 -0.30664062 19.66210938 C-0.19964057 13.10814229 -0.09784108 6.55410987 0 0 Z " fill="#FCE77F" transform="translate(332,111)"/>
<path d="M0 0 C0.33 0 0.66 0 1 0 C1 3.96 1 7.92 1 12 C-0.26341217 12.01030746 -1.52682434 12.02061493 -2.82852173 12.03123474 C-14.9697583 12.13070065 -27.11096275 12.23353311 -39.25214577 12.33933926 C-45.48807216 12.39358365 -51.72400313 12.44679974 -57.95996094 12.49731445 C-82.42451839 12.69627337 -106.88830409 12.91439908 -131.34894943 13.41078377 C-133.36583045 13.45170521 -135.38274029 13.49123179 -137.39967728 13.52929497 C-140.15379422 13.58226147 -142.90768836 13.64164068 -145.66162109 13.70336914 C-146.47000301 13.71829721 -147.27838493 13.73322529 -148.11126328 13.74860573 C-151.31469623 13.82739999 -153.94031206 13.98010402 -157 15 C-157.33 15.66 -157.66 16.32 -158 17 C-157.34 17.33 -156.68 17.66 -156 18 C-156.68707031 18.06058594 -157.37414062 18.12117188 -158.08203125 18.18359375 C-159.43361328 18.30927734 -159.43361328 18.30927734 -160.8125 18.4375 C-162.15248047 18.55931641 -162.15248047 18.55931641 -163.51953125 18.68359375 C-166.12743559 18.93489767 -166.12743559 18.93489767 -169 20 C-169.680625 20.144375 -170.36125 20.28875 -171.0625 20.4375 C-173.21494672 20.89366755 -173.21494672 20.89366755 -175 23 C-175.66 23.66 -176.32 24.32 -177 25 C-177 24.01 -177 23.02 -177 22 C-177.99 21.67 -178.98 21.34 -180 21 C-177.94638119 19.8762056 -175.8842235 18.7770731 -173.8125 17.6875 C-172.66394531 17.07261719 -171.51539063 16.45773438 -170.33203125 15.82421875 C-159.85341408 11.00738054 -148.82050285 10.56880488 -137.47924805 10.65942383 C-135.9699607 10.66027231 -134.46067213 10.65979065 -132.9513855 10.65809631 C-128.89638802 10.65724356 -124.84166252 10.67475104 -120.78672767 10.69581819 C-116.53335472 10.71470657 -112.27997397 10.71634493 -108.02656555 10.71989441 C-99.99105607 10.72917944 -91.95567057 10.75374469 -83.92021543 10.78394288 C-74.76412022 10.81759788 -65.60801877 10.83400067 -56.451877 10.84902918 C-37.63451465 10.88029784 -18.81726733 10.93298861 0 11 C0 7.37 0 3.74 0 0 Z " fill="#547A99" transform="translate(215,100)"/>
<path d="M0 0 C0.33 0 0.66 0 1 0 C1 3.63 1 7.26 1 11 C35.32 11 69.64 11 105 11 C105 60 105 60 102 70 C101.16626867 66.66507467 100.73433255 64.36512103 101 61 C101.99 60.01 101.99 60.01 103 59 C103.32997447 56.94092803 103.32997447 56.94092803 103.31884766 54.55029297 C103.33871735 53.62948944 103.35858704 52.70868591 103.37905884 51.75997925 C103.39061005 50.76410797 103.40216125 49.76823669 103.4140625 48.7421875 C103.43342865 47.72399933 103.4527948 46.70581116 103.4727478 45.6567688 C103.53265355 42.39626511 103.57897299 39.13572633 103.625 35.875 C103.66316965 33.66795313 103.70222077 31.46092131 103.7421875 29.25390625 C103.83836394 23.83607089 103.92337899 18.41814527 104 13 C102.06774315 13.00333092 102.06774315 13.00333092 100.09645081 13.00672913 C87.98537543 13.02695819 75.87430347 13.041971 63.76321507 13.05181217 C57.53606528 13.0570416 51.30892908 13.06414033 45.08178711 13.07543945 C39.07773135 13.08626621 33.07368871 13.09227638 27.06962395 13.09487724 C24.7733839 13.09673188 22.47714461 13.10035321 20.18091011 13.10573006 C16.97679186 13.11293768 13.7727285 13.11399106 10.56860352 13.11352539 C9.12930733 13.1189183 9.12930733 13.1189183 7.66093445 13.12442017 C6.79290192 13.1230455 5.92486938 13.12167084 5.03053284 13.12025452 C3.8925794 13.12163721 3.8925794 13.12163721 2.731637 13.12304783 C1 13 1 13 0 12 C-0.07244053 9.98035801 -0.08377188 7.95832876 -0.0625 5.9375 C-0.05347656 4.83277344 -0.04445312 3.72804688 -0.03515625 2.58984375 C-0.02355469 1.73519531 -0.01195312 0.88054687 0 0 Z " fill="#F3D469" transform="translate(215,324)"/>
<path d="M0 0 C0.66 0.66 1.32 1.32 2 2 C-0 4 -2 6 -4 8 C-4.66 7.67 -5.32 7.34 -6 7 C-6 8.32 -6 9.64 -6 11 C-7.33333333 12 -8.66666667 13 -10 14 C-10 15.32 -10 16.64 -10 18 C-11.65 18.66 -13.3 19.32 -15 20 C-15 20.66 -15 21.32 -15 22 C-15.99 22.66 -16.98 23.32 -18 24 C-18 24.763125 -18 25.52625 -18 26.3125 C-18 29.66202097 -19.13514535 31.28042031 -21 34 C-20.34 34 -19.68 34 -19 34 C-20 37 -20 37 -22 38.375 C-24.58322572 40.4738709 -24.61324789 41.75128226 -25 45 C-25.59017048 48.0246237 -26.22655519 51.01671289 -27 54 C-26.34 54.33 -25.68 54.66 -25 55 C-25.66 56.98 -26.32 58.96 -27 61 C-27.66 61 -28.32 61 -29 61 C-28.67 61.99 -28.34 62.98 -28 64 C-27.34 64.33 -26.68 64.66 -26 65 C-26 68.99904969 -27.72586967 70.80200422 -30 74 C-32 73 -32 73 -32.7265625 71.046875 C-33.12467952 66.61071388 -32.25056275 62.59528388 -31.375 58.25 C-31.09922119 56.85696655 -31.09922119 56.85696655 -30.81787109 55.43579102 C-26.44852654 34.06622261 -19.92901962 14.90413767 -2 1 C-1.34 0.67 -0.68 0.34 0 0 Z " fill="#5A91BB" transform="translate(34,122)"/>
<path d="M0 0 C-4.64384385 2.96690024 -7.49085174 4 -13 4 C-13.474375 4.804375 -13.94875 5.60875 -14.4375 6.4375 C-16 9 -16 9 -18.5625 9.8125 C-21 10 -21 10 -23 10 C-26.79831687 11.66176363 -28.66531825 12.49797737 -31 16 C-31 16.66 -31 17.32 -31 18 C-31.8971875 18.12375 -31.8971875 18.12375 -32.8125 18.25 C-35.61082841 19.20942688 -36.35366647 20.60533304 -38 23 C-38.66 23.33 -39.32 23.66 -40 24 C-39.62875 24.7425 -39.2575 25.485 -38.875 26.25 C-38 29 -38 29 -38.75 31.25 C-40 33 -40 33 -42 34 C-41.67 34.66 -41.34 35.32 -41 36 C-41.99 36.495 -41.99 36.495 -43 37 C-44.0553181 40.02930359 -44.18669083 43.01583182 -44.31640625 46.203125 C-44.35830078 47.1828125 -44.40019531 48.1625 -44.44335938 49.171875 C-44.48267578 50.18765625 -44.52199219 51.2034375 -44.5625 52.25 C-44.60568359 53.28125 -44.64886719 54.3125 -44.69335938 55.375 C-44.79925682 57.9165387 -44.90133443 60.45817196 -45 63 C-47.6098788 59.08518179 -47.34307508 55.73122266 -47.3125 51.1875 C-47.30758545 50.33816895 -47.3026709 49.48883789 -47.29760742 48.61376953 C-47.09444411 37.5429318 -45.38337616 27.30260306 -39 18 C-38.4946875 17.26007812 -37.989375 16.52015625 -37.46875 15.7578125 C-36.9840625 15.17773438 -36.499375 14.59765625 -36 14 C-35.34 14 -34.68 14 -34 14 C-34 13.34 -34 12.68 -34 12 C-26.72984838 7.4220764 -19.60272208 3.51816837 -11.375 0.9375 C-10.70082031 0.72198486 -10.02664062 0.50646973 -9.33203125 0.28442383 C-5.91865713 -0.7210562 -3.37168001 -1.36065259 0 0 Z " fill="#5E92BA" transform="translate(158,6)"/>
<path d="M0 0 C0 0.66 0 1.32 0 2 C-37.95 2 -75.9 2 -115 2 C-111.57524388 -0.28317075 -110.39494757 -0.24061965 -106.375 -0.21118164 C-105.21124344 -0.20783813 -104.04748688 -0.20449463 -102.84846497 -0.2010498 C-101.57847153 -0.18755493 -100.30847809 -0.17406006 -99 -0.16015625 C-97.66294306 -0.15356569 -96.32588065 -0.14801249 -94.98881531 -0.14343262 C-92.13997829 -0.1321799 -89.29125355 -0.11537166 -86.44247437 -0.09402466 C-79.0307562 -0.0391839 -71.61891463 -0.01883488 -64.20703125 0 C-63.46933817 0.00216459 -62.73164509 0.00432919 -61.97159767 0.00655937 C-46.75462085 0.04752934 -31.55493189 -0.24486886 -16.34570312 -0.73266602 C-15.52334671 -0.75735962 -14.7009903 -0.78205322 -13.85371399 -0.80749512 C-12.35206735 -0.85328269 -10.85055689 -0.90394994 -9.34928894 -0.96081543 C-6.05979361 -1.06204393 -3.14304468 -1.04233369 0 0 Z " fill="#3B698B" transform="translate(270,209)"/>
<path d="M0 0 C2.10867824 0.06338842 4.21740298 0.12524965 6.32617188 0.18554688 C11.44732044 0.33526432 16.56739664 0.50562883 21.6875 0.6875 C21.6875 1.0175 21.6875 1.3475 21.6875 1.6875 C21.11787033 1.69780746 20.54824066 1.70811493 19.96134949 1.71873474 C14.04044092 1.82679277 8.11968475 1.94139145 2.19897461 2.05981445 C-0.01160498 2.10316552 -2.22221809 2.14484046 -4.43286133 2.18481445 C-7.60768749 2.24251266 -10.78234486 2.30620862 -13.95703125 2.37109375 C-14.94774124 2.38780624 -15.93845123 2.40451874 -16.95918274 2.42173767 C-17.87991074 2.44168289 -18.80063873 2.46162811 -19.74926758 2.48217773 C-20.5597908 2.49772202 -21.37031403 2.5132663 -22.20539856 2.52928162 C-24.50396683 2.61559721 -24.50396683 2.61559721 -27.3125 3.6875 C-27.6425 4.3475 -27.9725 5.0075 -28.3125 5.6875 C-27.6525 6.0175 -26.9925 6.3475 -26.3125 6.6875 C-26.99957031 6.74808594 -27.68664062 6.80867188 -28.39453125 6.87109375 C-29.74611328 6.99677734 -29.74611328 6.99677734 -31.125 7.125 C-32.46498047 7.24681641 -32.46498047 7.24681641 -33.83203125 7.37109375 C-36.43993559 7.62239767 -36.43993559 7.62239767 -39.3125 8.6875 C-39.993125 8.831875 -40.67375 8.97625 -41.375 9.125 C-43.52744672 9.58116755 -43.52744672 9.58116755 -45.3125 11.6875 C-45.9725 12.3475 -46.6325 13.0075 -47.3125 13.6875 C-47.3125 12.6975 -47.3125 11.7075 -47.3125 10.6875 C-48.3025 10.3575 -49.2925 10.0275 -50.3125 9.6875 C-48.25888119 8.5637056 -46.1967235 7.4645731 -44.125 6.375 C-42.97644531 5.76011719 -41.82789063 5.14523438 -40.64453125 4.51171875 C-27.41617991 -1.45506486 -14.16418653 -0.50884626 0 0 Z " fill="#4E85B2" transform="translate(85.3125,111.3125)"/>
<path d="M0 0 C0.33 0 0.66 0 1 0 C0.67 20.13 0.34 40.26 0 61 C-5.28 60.67 -10.56 60.34 -16 60 C-16 59.67 -16 59.34 -16 59 C-11.38 59 -6.76 59 -2 59 C-2.04600342 57.39036377 -2.09200684 55.78072754 -2.1394043 54.12231445 C-2.30598941 48.14967761 -2.45210365 42.17668487 -2.59204102 36.20336914 C-2.65546422 33.61826508 -2.72443679 31.03329097 -2.79907227 28.44848633 C-2.90539821 24.73278696 -2.99175027 21.0170772 -3.07421875 17.30078125 C-3.11157639 16.14540359 -3.14893402 14.99002594 -3.18742371 13.79963684 C-3.20767105 12.71889389 -3.2279184 11.63815094 -3.2487793 10.5246582 C-3.27320602 9.57645706 -3.29763275 8.62825592 -3.32279968 7.65132141 C-2.93536366 4.46910815 -1.85642634 2.58576873 0 0 Z " fill="#477295" transform="translate(99,262)"/>
<path d="M0 0 C0.5775 0.226875 1.155 0.45375 1.75 0.6875 C0.76 0.6875 -0.23 0.6875 -1.25 0.6875 C-1.32352755 1.30167912 -1.39705509 1.91585823 -1.47281075 2.54864883 C-2.25 4.6875 -2.25 4.6875 -4.18220329 5.93716049 C-10.39271839 8.34897968 -15.65119143 9.25119902 -22.28955078 9.14160156 C-23.7108857 9.14247772 -23.7108857 9.14247772 -25.16093445 9.14337158 C-28.25611537 9.14061115 -31.35030231 9.10961644 -34.4453125 9.078125 C-36.60577875 9.07065534 -38.76625182 9.06496584 -40.92672729 9.06097412 C-46.58539872 9.04577494 -52.24365292 9.00654258 -57.90216064 8.9621582 C-63.68732054 8.92108183 -69.4725485 8.90293677 -75.2578125 8.8828125 C-86.58872397 8.84004264 -97.91932715 8.77186097 -109.25 8.6875 C-109.25 8.3575 -109.25 8.0275 -109.25 7.6875 C-108.07315643 7.67941315 -106.89631287 7.67132629 -105.68380737 7.66299438 C-94.58960689 7.58548766 -83.49552836 7.49773676 -72.40148735 7.39997292 C-66.69802149 7.35004115 -60.99457387 7.30371067 -55.29101562 7.265625 C-49.78609999 7.22873303 -44.28133812 7.18236213 -38.77655411 7.12943649 C-36.6770612 7.1109134 -34.57753535 7.09579775 -32.47799301 7.08415604 C-29.53578721 7.06725811 -26.59393198 7.03821407 -23.65185547 7.00634766 C-22.78510696 7.00418747 -21.91835846 7.00202728 -21.02534485 6.99980164 C-16.35637735 6.93526175 -12.66160885 6.39149685 -8.25 4.6875 C-7.59 4.6875 -6.93 4.6875 -6.25 4.6875 C-6.25 4.0275 -6.25 3.3675 -6.25 2.6875 C-3.02697842 -0.42041367 -3.02697842 -0.42041367 0 0 Z " fill="#FAD54F" transform="translate(397.25,313.3125)"/>
<path d="M0 0 C16.17 0 32.34 0 49 0 C49 0.33 49 0.66 49 1 C33.16 1 17.32 1 1 1 C1.10699219 5.20105469 1.21398437 9.40210937 1.32421875 13.73046875 C1.40094311 17.08627147 1.47454668 20.44211044 1.5460434 23.79802704 C1.62230287 27.33736974 1.70401896 30.87639112 1.79907227 34.4152832 C1.907953 38.47840963 1.99172372 42.54172035 2.07421875 46.60546875 C2.11157639 47.8702153 2.14893402 49.13496185 2.18742371 50.43803406 C2.20767105 51.61888077 2.2279184 52.79972748 2.2487793 54.01635742 C2.27320602 55.05338303 2.29763275 56.09040863 2.32279968 57.15885925 C1.94998777 60.44018563 0.87419467 62.31578951 -1 65 C-1.78906677 62.63279968 -2.03709558 61.18456207 -1.54017639 58.7122345 C-0.96977193 55.84822438 -0.84079474 53.21029585 -0.79467773 50.29174805 C-0.77473251 49.17096359 -0.75478729 48.05017914 -0.73423767 46.89543152 C-0.70916893 45.0967437 -0.70916893 45.0967437 -0.68359375 43.26171875 C-0.66281265 42.02581497 -0.64203156 40.78991119 -0.62062073 39.51655579 C-0.56640069 36.24347874 -0.51612422 32.9703726 -0.46777344 29.69720459 C-0.4173843 26.3521174 -0.36171184 23.00712276 -0.30664062 19.66210938 C-0.19886513 13.10813942 -0.09965822 6.55411853 0 0 Z " fill="#F8EAA4" transform="translate(332,111)"/>
<path d="M0 0 C-1.5 1.9375 -1.5 1.9375 -4 4 C-5.90848264 4.16452437 -7.81709067 4.32785297 -9.7265625 4.48046875 C-18.62648729 6.51430036 -28.89709327 16.65181431 -34 24 C-34.33 24.99 -34.66 25.98 -35 27 C-35.99 27 -36.98 27 -38 27 C-35.51430503 18.16197344 -26.18039518 10.03595252 -18.48046875 5.5234375 C-12.51799935 2.46621931 -6.84237365 -0.40249257 0 0 Z " fill="#F8EA90" transform="translate(156,224)"/>
<path d="M0 0 C1.22589844 0.01353516 1.22589844 0.01353516 2.4765625 0.02734375 C3.10304688 0.03894531 3.72953125 0.05054688 4.375 0.0625 C0.46901168 2.46858881 -3.73484557 2.92957358 -8.1875 3.625 C-9.00033447 3.75430908 -9.81316895 3.88361816 -10.65063477 4.0168457 C-26.5110258 6.48619436 -42.66139356 7.07140328 -58.625 5.0625 C-58.625 4.7325 -58.625 4.4025 -58.625 4.0625 C-56.98301636 4.02491577 -56.98301636 4.02491577 -55.30786133 3.98657227 C-51.23564517 3.89219992 -47.16358774 3.79205269 -43.09155273 3.69018555 C-41.33117392 3.64694931 -39.57075622 3.6052665 -37.81030273 3.56518555 C-35.27575987 3.50720815 -32.74141066 3.44359373 -30.20703125 3.37890625 C-29.42350784 3.36219376 -28.63998444 3.34548126 -27.8327179 3.32826233 C-23.2580918 3.2050274 -19.07670469 2.77428523 -14.6875 1.5 C-11.98744005 0.92726001 -9.37859587 1.0625 -6.625 1.0625 C-4.21954362 -0.14022819 -2.67503047 -0.03821472 0 0 Z " fill="#F7D45D" transform="translate(253.625,430.9375)"/>
<path d="M0 0 C0.99 0.33 1.98 0.66 3 1 C2.34 1.66 1.68 2.32 1 3 C0.90847656 3.79921875 0.81695312 4.5984375 0.72265625 5.421875 C0 8 0 8 -2.44140625 9.765625 C-8.39209317 12.59573893 -13.38034496 14.74539788 -20 15 C-16.484375 10.3125 -16.484375 10.3125 -15 9 C-13.68 9 -12.36 9 -11 9 C-11 8.34 -11 7.68 -11 7 C-10.13375 6.814375 -10.13375 6.814375 -9.25 6.625 C-4.80420336 5.39005649 -2.57967395 3.86951092 0 0 Z " fill="#467499" transform="translate(298,194)"/>
<path d="M0 0 C3.63 0 7.26 0 11 0 C11.33 0.99 11.66 1.98 12 3 C11.16855469 3.65355469 11.16855469 3.65355469 10.3203125 4.3203125 C6.0192841 7.85603336 3.11298879 10.29593247 2 16 C-0.42130331 12.36804504 -0.21022785 10.61650652 -0.125 6.3125 C-0.09792969 4.54326172 -0.09792969 4.54326172 -0.0703125 2.73828125 C-0.04710937 1.83464844 -0.02390625 0.93101563 0 0 Z " fill="#568EBA" transform="translate(137,32)"/>
<path d="M0 0 C-1.98 0.99 -1.98 0.99 -4 2 C-4 2.66 -4 3.32 -4 4 C-5.32 3.67 -6.64 3.34 -8 3 C-8 2.34 -8 1.68 -8 1 C-8.99 1.495 -8.99 1.495 -10 2 C-10.33 2.99 -10.66 3.98 -11 5 C-12.98 5 -14.96 5 -17 5 C-17.33 4.01 -17.66 3.02 -18 2 C-20.00016466 0.79117904 -20.00016466 0.79117904 -22 0 C-19.08462559 -0.38991633 -16.16878665 -0.76239 -13.25 -1.125 C-12.425 -1.23714844 -11.6 -1.34929688 -10.75 -1.46484375 C-9.95078125 -1.56152344 -9.1515625 -1.65820312 -8.328125 -1.7578125 C-7.5949707 -1.8520752 -6.86181641 -1.94633789 -6.10644531 -2.04345703 C-3.60526153 -1.99185635 -2.13694627 -1.25429455 0 0 Z " fill="#508CBA" transform="translate(193,2)"/>
<path d="M0 0 C0 0.66 0 1.32 0 2 C-1.98 2.66 -3.96 3.32 -6 4 C-6 4.66 -6 5.32 -6 6 C-7.3921875 5.9071875 -7.3921875 5.9071875 -8.8125 5.8125 C-11.95183316 5.69299652 -11.95183316 5.69299652 -13.75 7.375 C-14.1625 7.91125 -14.575 8.4475 -15 9 C-15.66 9.66 -16.32 10.32 -17 11 C-17 10.01 -17 9.02 -17 8 C-17.99 7.67 -18.98 7.34 -20 7 C-17.730384 5.85170023 -15.45939222 4.70628022 -13.1875 3.5625 C-12.54490234 3.23701172 -11.90230469 2.91152344 -11.24023438 2.57617188 C-3.67624935 -1.22541645 -3.67624935 -1.22541645 0 0 Z " fill="#6092BA" transform="translate(55,114)"/>
<path d="M0 0 C6.07549529 0.15578193 11.23530432 3.45001923 16 7 C16 7.66 16 8.32 16 9 C16.639375 9.268125 17.27875 9.53625 17.9375 9.8125 C20 11 20 11 21 14 C19.02 13.34 17.04 12.68 15 12 C15 11.01 15 10.02 15 9 C14.319375 8.7525 13.63875 8.505 12.9375 8.25 C9.42834854 6.75674406 6.2978881 4.91877126 3 3 C1.67353844 2.3197633 0.34391123 1.64507739 -1 1 C-0.67 0.67 -0.34 0.34 0 0 Z " fill="#F8EA93" transform="translate(386,113)"/>
<path d="M0 0 C0 0.66 0 1.32 0 2 C0.66 2 1.32 2 2 2 C1.67 2.66 1.34 3.32 1 4 C0.55011719 3.6390625 0.10023438 3.278125 -0.36328125 2.90625 C-6.09395121 -1.22810107 -11.02531666 -1.99042589 -18 -1 C-19.68745601 -0.38786078 -21.36222361 0.26521383 -23 1 C-23 0.01 -23 -0.98 -23 -2 C-14.35982479 -5.75863218 -7.08793326 -6.772914 0 0 Z " fill="#F6D65F" transform="translate(287,365)"/>
<path d="M0 0 C6.39467585 5.4240554 9.43793702 16.17147424 12 24 C12 25.32 12 26.64 12 28 C11.34 28 10.68 28 10 28 C8.80712589 24.12315913 8 21.08378077 8 17 C7.34 17 6.68 17 6 17 C6 15.35 6 13.7 6 12 C5.34 12 4.68 12 4 12 C3.32332002 10.75539217 2.65905281 9.50403104 2 8.25 C1.62875 7.55390625 1.2575 6.8578125 0.875 6.140625 C0 4 0 4 0 0 Z " fill="#F6E486" transform="translate(411,132)"/>
<path d="M0 0 C-2.31 3.63 -4.62 7.26 -7 11 C-8 7 -8 7 -7 4 C-6.855625 3.29875 -6.71125 2.5975 -6.5625 1.875 C-6.376875 1.25625 -6.19125 0.6375 -6 0 C-4 -1 -4 -1 0 0 Z " fill="#4F7FA5" transform="translate(114,235)"/>
<path d="M0 0 C3.63 0 7.26 0 11 0 C11.33 0.99 11.66 1.98 12 3 C8.37 3.66 4.74 4.32 1 5 C0.67 3.35 0.34 1.7 0 0 Z " fill="#4C88B8" transform="translate(137,32)"/>
<path d="M0 0 C2.475 0.495 2.475 0.495 5 1 C6.17076699 4.98060777 7.25749403 8.91621717 8 13 C4.32117927 9.71533863 2.24849899 6.33639092 0 2 C0 1.34 0 0.68 0 0 Z " fill="#608BB0" transform="translate(14,290)"/>
<path d="M0 0 C0.99 0 1.98 0 3 0 C3.14285714 7.42857143 3.14285714 7.42857143 2 11 C0.68 11 -0.64 11 -2 11 C-1.855625 10.29875 -1.71125 9.5975 -1.5625 8.875 C-0.98521625 5.92443859 -0.48304859 2.96729849 0 0 Z " fill="#3A6C93" transform="translate(316,164)"/>
<path d="M0 0 C0 1.32 0 2.64 0 4 C-4.05431692 5.15837626 -6.21812119 4.83691257 -10 3 C-10 2.34 -10 1.68 -10 1 C-3.375 -1.125 -3.375 -1.125 0 0 Z " fill="#497AA5" transform="translate(48,315)"/>
<path d="M0 0 C0.66 0 1.32 0 2 0 C1 3 1 3 -1.22265625 4.38671875 C-7.14495357 7.0994079 -11.48003726 8.61509082 -18 8 C-13.45134759 5.58528329 -8.61435123 3.9255132 -3.80078125 2.12109375 C-1.13671311 1.26794587 -1.13671311 1.26794587 0 0 Z " fill="#F7E790" transform="translate(298,214)"/>
<path d="M0 0 C3.96 0.33 7.92 0.66 12 1 C9 5 9 5 5.4375 5.875 C4.303125 5.91625 3.16875 5.9575 2 6 C1.34 5.34 0.68 4.68 0 4 C0 2.68 0 1.36 0 0 Z " fill="#4C83AF" transform="translate(240,0)"/>
<path d="M0 0 C0.66 0 1.32 0 2 0 C2 0.99 2 1.98 2 3 C3.32 3 4.64 3 6 3 C6.66 2.34 7.32 1.68 8 1 C7.6875 2.9375 7.6875 2.9375 7 5 C6.01 5.33 5.02 5.66 4 6 C4 6.66 4 7.32 4 8 C3.01 8 2.02 8 1 8 C1 7.34 1 6.68 1 6 C0.34 5.67 -0.32 5.34 -1 5 C-0.67 3.35 -0.34 1.7 0 0 Z " fill="#FBD439" transform="translate(290,394)"/>
<path d="M0 0 C0.99 0.33 1.98 0.66 3 1 C2.34 1.66 1.68 2.32 1 3 C0.35232207 5.57061311 0.35232207 5.57061311 0 8 C-2.31 8 -4.62 8 -7 8 C-7 7.34 -7 6.68 -7 6 C-6.401875 5.7525 -5.80375 5.505 -5.1875 5.25 C-2.71352479 3.83629988 -1.56629745 2.34944617 0 0 Z " fill="#346C9A" transform="translate(298,194)"/>
<path d="M0 0 C1.051875 -0.02578125 2.10375 -0.0515625 3.1875 -0.078125 C6 0.25 6 0.25 7.875 1.765625 C8.24625 2.25546875 8.6175 2.7453125 9 3.25 C8.01 3.745 8.01 3.745 7 4.25 C6.34 3.92 5.68 3.59 5 3.25 C2.7927077 3.17907158 0.58332548 3.16584975 -1.625 3.1875 C-3.40777344 3.20103516 -3.40777344 3.20103516 -5.2265625 3.21484375 C-6.59941406 3.23224609 -6.59941406 3.23224609 -8 3.25 C-8.33 2.59 -8.66 1.93 -9 1.25 C-5.80693695 0.18564565 -3.35556004 0.04934647 0 0 Z " fill="#779EBE" transform="translate(158,30.75)"/>
<path d="M0 0 C0.66 0.66 1.32 1.32 2 2 C0 4 -2 6 -4 8 C-4.66 7.67 -5.32 7.34 -6 7 C-6.33 7.66 -6.66 8.32 -7 9 C-7.99 8.67 -8.98 8.34 -10 8 C-8.71064081 6.85157077 -7.41843421 5.70633773 -6.125 4.5625 C-5.04605469 3.60537109 -5.04605469 3.60537109 -3.9453125 2.62890625 C-2 1 -2 1 0 0 Z " fill="#689ABF" transform="translate(34,122)"/>
<path d="M0 0 C2.0625 0.4375 2.0625 0.4375 4 1 C3.42365861 5.75481646 1.44931479 8.97048212 -1 13 C-1.625 11.1875 -1.625 11.1875 -2 9 C-1.34 8.01 -0.68 7.02 0 6 C-0.27942455 4.32345271 -0.60828247 2.65391846 -1 1 C-0.67 0.67 -0.34 0.34 0 0 Z " fill="#49769B" transform="translate(313,174)"/>
<path d="M0 0 C1.15957207 3.47871621 0.77456651 4.34219645 -0.4375 7.6875 C-0.72496094 8.49574219 -1.01242188 9.30398438 -1.30859375 10.13671875 C-1.53675781 10.75160156 -1.76492187 11.36648438 -2 12 C-2.99 12 -3.98 12 -5 12 C-4.74476126 10.37247769 -4.47025506 8.74796804 -4.1875 7.125 C-4.03667969 6.22007812 -3.88585937 5.31515625 -3.73046875 4.3828125 C-3 2 -3 2 0 0 Z " fill="#47799E" transform="translate(103,249)"/>
<path d="M0 0 C0.556875 0.16242188 1.11375 0.32484375 1.6875 0.4921875 C4.19228372 1.04222447 6.437481 1.13281256 9 1.125 C9.845625 1.12757812 10.69125 1.13015625 11.5625 1.1328125 C13.84698944 1.00833711 15.80991574 0.63877457 18 0 C18 0.66 18 1.32 18 2 C11.91748904 3.70366626 7.22895086 4.13253652 1 3 C0.67 2.01 0.34 1.02 0 0 Z " fill="#5987AB" transform="translate(148,69)"/>
<path d="M0 0 C1.32 0.33 2.64 0.66 4 1 C3.67 2.98 3.34 4.96 3 7 C1.68 7.33 0.36 7.66 -1 8 C-1.33 6.35 -1.66 4.7 -2 3 C-1.34 3 -0.68 3 0 3 C0 2.01 0 1.02 0 0 Z " fill="#4B8BBC" transform="translate(116,32)"/>
<path d="M0 0 C0.33 0 0.66 0 1 0 C2.45295405 9.99562363 2.45295405 9.99562363 0.5625 14.1875 C0.046875 14.785625 -0.46875 15.38375 -1 16 C-2.26823485 12.34606463 -1.75715321 9.50929974 -1.0625 5.75 C-0.86785156 4.67234375 -0.67320312 3.5946875 -0.47265625 2.484375 C-0.31667969 1.66453125 -0.16070312 0.8446875 0 0 Z " fill="#F5E789" transform="translate(332,160)"/>
<path d="M0 0 C0.99 1.32 1.98 2.64 3 4 C2.01 4.66 1.02 5.32 0 6 C-1.06246527 7.96752828 -2.07137808 9.96587579 -3 12 C-3.66 12 -4.32 12 -5 12 C-3.85814266 7.52040582 -2.56984833 3.85477249 0 0 Z " fill="#689AC3" transform="translate(16,140)"/>
<path d="M0 0 C0.33 0 0.66 0 1 0 C1.36120401 5.4180602 1.36120401 5.4180602 -0.125 7.8125 C-2.66676215 9.42228269 -5.0398108 9.67109009 -8 10 C-7.236875 9.278125 -6.47375 8.55625 -5.6875 7.8125 C-3.28715765 5.30051382 -1.70928296 2.99124519 0 0 Z " fill="#628EB0" transform="translate(174,59)"/>
<path d="M0 0 C2.97 0 5.94 0 9 0 C9 0.66 9 1.32 9 2 C8.01 2.495 8.01 2.495 7 3 C7.99 3.99 8.98 4.98 10 6 C6.62972148 6 5.93297304 5.50175992 3.3125 3.5625 C2.68988281 3.11003906 2.06726563 2.65757812 1.42578125 2.19140625 C0.95527344 1.79824219 0.48476562 1.40507812 0 1 C0 0.67 0 0.34 0 0 Z " fill="#F8E072" transform="translate(130,412)"/>
<path d="M0 0 C-4.10744496 2.62420094 -6.84348038 4.34308267 -11.75 3.5625 C-12.4925 3.376875 -13.235 3.19125 -14 3 C-9.7368213 0.15788087 -5.03577274 -2.0143091 0 0 Z " fill="#6394B8" transform="translate(158,6)"/>
<path d="M0 0 C0.66 0 1.32 0 2 0 C1.34 3.63 0.68 7.26 0 11 C-0.99 11 -1.98 11 -3 11 C-2.53199289 6.94393835 -2.12046792 3.53411321 0 0 Z " fill="#F6D458" transform="translate(255,373)"/>
<path d="M0 0 C0.33 0 0.66 0 1 0 C1.33 1.98 1.66 3.96 2 6 C0.68 6.33 -0.64 6.66 -2 7 C-2.33 8.32 -2.66 9.64 -3 11 C-4.65 11.33 -6.3 11.66 -8 12 C-7.59007812 11.55269531 -7.18015625 11.10539062 -6.7578125 10.64453125 C-3.74359926 7.26255515 -1.33949455 4.420332 0 0 Z " fill="#F8D76B" transform="translate(292,387)"/>
<path d="M0 0 C0.598125 0.226875 1.19625 0.45375 1.8125 0.6875 C0.76375002 3.30937494 0.16318687 4.48121361 -2.3125 5.9375 C-2.93125 6.185 -3.55 6.4325 -4.1875 6.6875 C-4.875 4.875 -4.875 4.875 -5.1875 2.6875 C-3.58493056 0.24147296 -2.95482043 -0.4221172 0 0 Z " fill="#497A9D" transform="translate(303.1875,193.3125)"/>
<path d="M0 0 C0.33 0.99 0.66 1.98 1 3 C1.66 3.33 2.32 3.66 3 4 C2.6875 5.875 2.6875 5.875 2 8 C1.01 8.66 0.02 9.32 -1 10 C-1.33 7.03 -1.66 4.06 -2 1 C-1.34 0.67 -0.68 0.34 0 0 Z " fill="#5793BA" transform="translate(2,234)"/>
<path d="M0 0 C0.66 0.99 1.32 1.98 2 3 C1.34 3.4125 0.68 3.825 0 4.25 C-0.99 5.11625 -0.99 5.11625 -2 6 C-2 7.32 -2 8.64 -2 10 C-2.99 10.33 -3.98 10.66 -5 11 C-4.4971641 7.31253672 -4.00153469 4.17890804 -2 1 C-1.34 0.67 -0.68 0.34 0 0 Z " fill="#4C8BBA" transform="translate(26,130)"/>
<path d="M0 0 C-1.98 0.99 -1.98 0.99 -4 2 C-4 2.66 -4 3.32 -4 4 C-4.99 3.67 -5.98 3.34 -7 3 C-7 2.34 -7 1.68 -7 1 C-7.99 0.34 -8.98 -0.32 -10 -1 C-5.92224809 -1.9267618 -3.57818963 -2.33958553 0 0 Z " fill="#4883B2" transform="translate(193,2)"/>
<path d="M0 0 C0.66 0.66 1.32 1.32 2 2 C2.66 2.33 3.32 2.66 4 3 C2.02 5.97 2.02 5.97 0 9 C-1.10844919 5.67465243 -0.84454356 3.37817425 0 0 Z " fill="#4E87B4" transform="translate(2,193)"/>
<path d="M0 0 C-1 3 -1 3 -3.0625 4.1875 C-3.701875 4.455625 -4.34125 4.72375 -5 5 C-5.66 3.68 -6.32 2.36 -7 1 C-3.375 -1.125 -3.375 -1.125 0 0 Z " fill="#3E81B5" transform="translate(176,67)"/>
<path d="M0 0 C2.97 0.99 5.94 1.98 9 3 C6 5 6 5 3.3125 4.625 C2.549375 4.41875 1.78625 4.2125 1 4 C1 3.34 1 2.68 1 2 C0.34 1.67 -0.32 1.34 -1 1 C-0.67 0.67 -0.34 0.34 0 0 Z " fill="#5782A2" transform="translate(280,7)"/>
<path d="M0 0 C0.86625 0.3403125 0.86625 0.3403125 1.75 0.6875 C0.76 0.6875 -0.23 0.6875 -1.25 0.6875 C-1.58 2.0075 -1.91 3.3275 -2.25 4.6875 C-3.57 5.0175 -4.89 5.3475 -6.25 5.6875 C-6.25 4.6975 -6.25 3.7075 -6.25 2.6875 C-4.08146295 0.51896295 -3.10906228 -0.43181421 0 0 Z " fill="#F6D64B" transform="translate(397.25,313.3125)"/>
<path d="M0 0 C-0.60183749 2.02045442 -1.27306096 4.02111039 -2 6 C-2.99 6.495 -2.99 6.495 -4 7 C-4 6.01 -4 5.02 -4 4 C-4.99 3.67 -5.98 3.34 -7 3 C-2.25 0 -2.25 0 0 0 Z " fill="#6799C2" transform="translate(42,118)"/>
<path d="M0 0 C0.99 0 1.98 0 3 0 C3 0.66 3 1.32 3 2 C3.66 2 4.32 2 5 2 C5 2.99 5 3.98 5 5 C3.35 5 1.7 5 0 5 C0 3.33333333 0 1.66666667 0 0 Z " fill="#376F9C" transform="translate(313,42)"/>
<path d="M0 0 C3.44216672 2.6598561 3.99504674 5.90288286 5 10 C4.34 10 3.68 10 3 10 C0.70366176 6.55549263 0.45983515 4.06187717 0 0 Z " fill="#527D9E" transform="translate(313,34)"/>
<path d="M0 0 C1.98 0 3.96 0 6 0 C4.35 1.98 2.7 3.96 1 6 C-0.0625 4.125 -0.0625 4.125 -1 2 C-0.67 1.34 -0.34 0.68 0 0 Z " fill="#7CA1BE" transform="translate(141,35)"/>
<path d="M0 0 C1.65 0 3.3 0 5 0 C5.66 1.32 6.32 2.64 7 4 C7.66 4 8.32 4 9 4 C8.67 4.66 8.34 5.32 8 6 C6.66402348 5.19185349 5.331275 4.37836819 4 3.5625 C3.2575 3.11003906 2.515 2.65757812 1.75 2.19140625 C1.1725 1.79824219 0.595 1.40507812 0 1 C0 0.67 0 0.34 0 0 Z " fill="#F8DC72" transform="translate(280,363)"/>
<path d="M0 0 C1.32 0 2.64 0 4 0 C4 0.66 4 1.32 4 2 C4.99 2 5.98 2 7 2 C6.67 2.99 6.34 3.98 6 5 C4 4 2 3 0 2 C0 1.34 0 0.68 0 0 Z " fill="#FCD83C" transform="translate(262,358)"/>
<path d="M0 0 C0.99 0 1.98 0 3 0 C3 0.99 3 1.98 3 3 C3.66 3.33 4.32 3.66 5 4 C2.69 4.33 0.38 4.66 -2 5 C-1.34 3.35 -0.68 1.7 0 0 Z " fill="#4B8BBA" transform="translate(35,122)"/>
<path d="M0 0 C0.33 0.66 0.66 1.32 1 2 C1.66 2.33 2.32 2.66 3 3 C-1.455 3.495 -1.455 3.495 -6 4 C-6.33 3.34 -6.66 2.68 -7 2 C-4.69 1.34 -2.38 0.68 0 0 Z " fill="#488CC0" transform="translate(56,115)"/>
<path d="M0 0 C-1.98 1.32 -3.96 2.64 -6 4 C-6.66 3.67 -7.32 3.34 -8 3 C-7.67 2.01 -7.34 1.02 -7 0 C-4.05610218 -1.17755913 -3.10046087 -1.03348696 0 0 Z " fill="#F6DB64" transform="translate(296,417)"/>
<path d="M0 0 C0.66 0 1.32 0 2 0 C1.75 2.375 1.75 2.375 1 5 C-1.0625 6.3125 -1.0625 6.3125 -3 7 C-3 5.68 -3 4.36 -3 3 C-2.01 3 -1.02 3 0 3 C0 2.01 0 1.02 0 0 Z " fill="#F7D968" transform="translate(307,403)"/>
<path d="M0 0 C1.98362069 2.91708924 1.9876191 4.12380904 1.625 7.75 C1.41875 8.8225 1.2125 9.895 1 11 C0.67 11 0.34 11 0 11 C-1.125 3.375 -1.125 3.375 0 0 Z " fill="#5E8FB7" transform="translate(4,249)"/>
<path d="M0 0 C1.32 0.33 2.64 0.66 4 1 C3.34 1 2.68 1 2 1 C1.67 2.32 1.34 3.64 1 5 C-0.65 5 -2.3 5 -4 5 C-2.68 3.35 -1.36 1.7 0 0 Z " fill="#396790" transform="translate(282,204)"/>
<path d="M0 0 C0.33 0.66 0.66 1.32 1 2 C-1.64 2.99 -4.28 3.98 -7 5 C-7.33 4.01 -7.66 3.02 -8 2 C-5.36 1.34 -2.72 0.68 0 0 Z " fill="#5B8CB5" transform="translate(62,111)"/>
<path d="M0 0 C2.31 1.65 4.62 3.3 7 5 C6.01 5.66 5.02 6.32 4 7 C3.67 6.01 3.34 5.02 3 4 C2.01 4.33 1.02 4.66 0 5 C0 3.35 0 1.7 0 0 Z " fill="#5F8FB3" transform="translate(141,63)"/>
<path d="M0 0 C0 1.98 0 3.96 0 6 C-0.99 6.495 -0.99 6.495 -2 7 C-2.99 5.02 -3.98 3.04 -5 1 C-2 0 -2 0 0 0 Z " fill="#5D8CB3" transform="translate(176,37)"/>
<path d="M0 0 C2 2 2 2 2 5 C2.66 5.33 3.32 5.66 4 6 C2.35 6.33 0.7 6.66 -1 7 C-0.67 4.69 -0.34 2.38 0 0 Z " fill="#6497BF" transform="translate(113,36)"/>
<path d="M0 0 C1.98 0 3.96 0 6 0 C6.33 0.99 6.66 1.98 7 3 C5.02 3 3.04 3 1 3 C0.67 2.01 0.34 1.02 0 0 Z " fill="#5390BF" transform="translate(142,32)"/>
</svg>
